<svg width="244" height="109" viewBox="0 0 244 109" fill="none" xmlns="http://www.w3.org/2000/svg">
<path d="M40.9336 1C58.4659 1.00375 67.412 13.3491 67.4121 23.8926V37.1338H67.8984C71.6589 37.134 74.9323 39.0645 77.2373 41.5439C79.5254 44.0054 80.9998 47.1597 81 49.8232V94.459C81 99.0107 79.1992 102.192 76.6904 104.335C74.217 106.447 71.1099 107.508 68.502 107.983L68.4131 108H13.5449V107.999C10.8802 108.014 7.7739 106.551 5.35645 104.302C2.92015 102.035 1.02469 98.8259 1 95.1816V95.1641L1.50488 49.5996C1.50916 46.9341 2.9916 43.8371 5.25293 41.4336C7.53318 39.0099 10.7528 37.1339 14.3945 37.1338H14.668V23.8926C14.668 20.184 16.8768 14.4803 21.1904 9.72363C25.5417 4.92548 32.1153 0.998243 40.9336 1ZM26.9746 56.3535C24.71 56.5515 23.1884 58.4128 22.3096 60.7197C21.8792 61.8494 21.6397 63.0038 21.5576 63.9355C21.5165 64.402 21.5171 64.7924 21.5449 65.082C21.5769 65.4147 21.6332 65.483 21.5957 65.4268C21.6994 65.5825 21.783 65.7004 21.8496 65.79C21.984 65.6744 22.1574 65.5089 22.3916 65.2744C23.9433 63.7211 26.8372 62.8337 30.0352 63.291C30.9692 63.4247 31.4292 64.1929 31.6455 64.8135C31.8709 65.4603 31.9607 66.2742 31.9814 67.126C32.0234 68.8494 31.7863 71.0584 31.4658 73.1973C31.1435 75.3485 30.7285 77.481 30.3945 79.0723C30.2274 79.8689 30.0801 80.5326 29.9746 80.9971C29.9219 81.2292 29.8789 81.4121 29.8496 81.5371C29.835 81.5995 29.8242 81.648 29.8164 81.6807C29.8126 81.6968 29.8096 81.7093 29.8076 81.7178C29.8066 81.722 29.8052 81.7253 29.8047 81.7275V81.7305L28.832 81.4971L29.8037 81.7314L29.7979 81.7588L29.7891 81.7861C29.2942 83.4298 27.9058 84.8174 26.9072 85.8389C26.207 86.5551 25.7053 87.0794 25.4541 87.5195C25.3626 87.6799 25.2426 88.0923 25.2539 88.6924C25.2648 89.2671 25.3956 89.9145 25.6924 90.5088C25.9854 91.0954 26.4391 91.6306 27.1113 92.0137C27.7851 92.3975 28.7358 92.661 30.0703 92.6133C32.3701 92.5308 33.8542 90.513 34.7939 87.9785C35.2446 86.763 35.5244 85.5418 35.6904 84.6182C35.773 84.1585 35.8264 83.7769 35.8594 83.5127C35.8758 83.3811 35.8866 83.2789 35.8936 83.2109C35.897 83.1769 35.8999 83.1509 35.9014 83.1348C35.9018 83.1301 35.9021 83.1261 35.9023 83.123C35.9025 83.1209 35.903 83.1174 35.9033 83.1133C35.9039 83.1048 35.905 83.0918 35.9062 83.0752C35.9087 83.0417 35.9123 82.9916 35.917 82.9268C35.9264 82.7971 35.9402 82.6068 35.958 82.3643C35.9937 81.8789 36.0453 81.1841 36.1084 80.3467C36.2345 78.6717 36.4068 76.4242 36.5928 74.1367C36.7787 71.8503 36.9783 69.5191 37.1582 67.6777C37.2481 66.7578 37.334 65.9535 37.4111 65.3359C37.4496 65.0278 37.4869 64.759 37.5225 64.542C37.5545 64.3466 37.5946 64.1295 37.6494 63.9648C37.7987 63.5166 38.1202 63.2176 38.4092 63.0273C38.7029 62.834 39.0424 62.6988 39.375 62.6025C40.0425 62.4093 40.8456 62.3242 41.624 62.3242C42.4055 62.3242 43.2244 62.4105 43.9297 62.5967C44.2823 62.6898 44.6317 62.8147 44.9424 62.9824C45.2459 63.1463 45.5708 63.3827 45.7998 63.7266C45.9842 64.0034 46.0436 64.3385 46.0723 64.5332C46.1081 64.7762 46.1273 65.0619 46.1367 65.3691C46.1557 65.9869 46.1373 66.7843 46.0957 67.6914C46.0123 69.5093 45.8325 71.8571 45.6475 74.2744C45.4348 77.0532 45.2149 79.9287 45.1182 82.2646C45.0698 83.4334 45.0527 84.4478 45.0811 85.2373C45.0953 85.6324 45.1208 85.9556 45.1553 86.2051C45.1724 86.3292 45.1903 86.4268 45.208 86.5C45.2167 86.536 45.2251 86.5635 45.2314 86.583C45.2372 86.6006 45.2407 86.6092 45.2412 86.6104C45.3265 86.7982 45.4122 86.9937 45.4961 87.1865C46.0097 88.3662 46.5488 89.5797 47.6143 90.5811C48.6525 91.5567 50.2824 92.4085 53.1084 92.6152C55.7571 92.8089 57.7675 90.8568 58.9365 88.4277C59.5089 87.2383 59.8212 86.0374 59.8848 85.1338C59.9169 84.6767 59.881 84.3536 59.8242 84.1641L59.8232 84.1621C59.1161 84.1493 58.4411 84.5294 57.3076 85.2344C56.8127 85.5422 56.2456 85.8948 55.6094 86.2158L55.3037 86.3701L54.9668 86.3047C53.7095 86.0589 52.8762 85.4462 52.3232 84.6309C51.8123 83.8775 51.572 82.9853 51.3799 82.2998C51.2652 81.8906 51.167 81.5408 51.043 81.2227L50.998 81.1094L50.9824 80.9873C50.6132 78.1181 50.726 74.6357 50.9492 71.7734C51.1726 68.9091 51.5141 66.5826 51.6309 65.998C51.7673 65.3149 52.0912 64.6192 52.4209 64.0791C52.5891 63.8036 52.7726 63.5448 52.957 63.3301C53.1188 63.1418 53.3581 62.8949 53.6494 62.749C53.8656 62.6408 54.1095 62.6121 54.2041 62.6006C54.349 62.583 54.5163 62.5719 54.6895 62.5645C55.0387 62.5494 55.4758 62.5469 55.9355 62.5508C56.8577 62.5586 57.928 62.5926 58.6885 62.6172C59.1609 62.6325 59.4902 62.6435 59.6172 62.6436C59.6171 62.6435 59.6545 62.6413 59.7217 62.6123C59.788 62.5837 59.8613 62.5381 59.9268 62.4785C60.0637 62.3538 60.1035 62.234 60.1035 62.1553C60.1035 61.911 60.1196 61.4934 60.1367 61.0244C60.1617 60.3387 60.1919 59.4949 60.1973 58.7266C60.2028 57.9229 60.1781 57.3129 60.123 57.0371C60.066 56.752 59.9427 56.6084 59.8174 56.5215C59.6735 56.4218 59.4596 56.3536 59.1934 56.3535H26.9746ZM40.9336 12.1436C33.9229 12.1436 30.2443 15.6123 28.2666 19.0762C27.2651 20.8302 26.6975 22.5947 26.3809 23.9258C26.2231 24.5892 26.1286 25.1398 26.0742 25.5205C26.0471 25.7105 26.0307 25.8578 26.0205 25.9551C26.0154 26.0036 26.0118 26.0398 26.0098 26.0625V37.1338H56.9189V26.0967C56.9157 26.077 56.9122 26.0527 56.9072 26.0244C56.89 25.9268 56.8621 25.7793 56.8213 25.5889C56.7396 25.2072 56.6052 24.6546 56.3994 23.9893C55.9869 22.6553 55.2907 20.8843 54.1582 19.1211C51.9131 15.6259 47.9555 12.1436 40.9336 12.1436Z" fill="url(#paint0_linear_2001_29)" stroke="url(#paint1_linear_2001_29)" stroke-width="2"/>
<path d="M116.867 75.3982C120.586 71.6794 120.586 55.114 120.586 55.114C118.095 53.7839 112.991 58.8122 111.796 60.8612C111.097 61.6843 110.106 60.8612 110.106 60.185C110.106 59.5089 108.415 48.3526 118.557 48.3526C128.7 48.3526 148.984 47.3384 149.66 48.3526C150.336 49.3668 149.322 54.4379 148.646 55.114C147.97 55.7901 141.884 54.4379 140.87 55.114C139.856 55.7901 136.813 81.1453 141.884 79.1169C146.955 77.0885 145.941 75.7362 147.293 74.384C148.646 73.0317 147.97 81.8214 145.603 83.5118C143.237 85.2023 138.635 88.7486 134.447 83.5118C130.258 78.275 135.461 55.7901 135.123 55.114C135.123 55.114 127.685 53.7617 126.333 55.114C124.981 56.4663 123.967 77.7646 123.29 79.7931C122.614 81.8215 118.219 88.2448 114.501 85.5402C110.782 82.8357 113.148 79.1169 116.867 75.3982Z" fill="url(#paint2_linear_2001_29)" stroke="url(#paint3_linear_2001_29)"/>
<path d="M166.901 58.1563H159.126V85.5399H166.901V58.1563Z" fill="#D9D9D9"/>
<path d="M162.845 47C162.845 47 158.45 47 158.45 51.3949C158.45 55.7898 162.845 55.7898 162.845 55.7898C162.845 55.7898 167.24 55.7898 167.24 51.3949C167.24 47 162.845 47 162.845 47Z" fill="#D9D9D9"/>
<path d="M181.1 58.1563H173.325L182.115 71.341L173.325 85.5399H180.424L185.833 77.4262L190.904 85.5399H199.018L190.228 71.341L199.018 58.1563H190.904L185.833 65.9319L181.1 58.1563Z" fill="#D9D9D9"/>
<path fill-rule="evenodd" clip-rule="evenodd" d="M222.683 76.074L227.416 79.4547C228.955 79.9073 223.837 85.842 216.26 86.5541C202.81 87.0362 202.399 71.341 202.399 71.341C202.399 57.1421 216.26 57.4802 216.26 57.4802C230.121 58.1563 229.106 74.3836 229.106 74.3836H210.174C211.146 77.9782 212.359 79.2237 216.26 79.4547C219.302 79.4547 223.029 76.4512 222.683 76.074ZM221.669 68.6364H210.174C210.174 68.6364 210.851 63.9035 216.26 63.9035C221.669 63.9035 221.669 68.6364 221.669 68.6364Z" fill="#D9D9D9"/>
<path d="M235.53 47H242.629V85.5399H235.53V47Z" fill="#D9D9D9"/>
<path d="M166.901 58.1563H159.126V85.5399H166.901V58.1563Z" stroke="black"/>
<path d="M162.845 47C162.845 47 158.45 47 158.45 51.3949C158.45 55.7898 162.845 55.7898 162.845 55.7898C162.845 55.7898 167.24 55.7898 167.24 51.3949C167.24 47 162.845 47 162.845 47Z" stroke="black"/>
<path d="M181.1 58.1563H173.325L182.115 71.341L173.325 85.5399H180.424L185.833 77.4262L190.904 85.5399H199.018L190.228 71.341L199.018 58.1563H190.904L185.833 65.9319L181.1 58.1563Z" stroke="black"/>
<path fill-rule="evenodd" clip-rule="evenodd" d="M222.683 76.074L227.416 79.4547C228.955 79.9073 223.837 85.842 216.26 86.5541C202.81 87.0362 202.399 71.341 202.399 71.341C202.399 57.1421 216.26 57.4802 216.26 57.4802C230.121 58.1563 229.106 74.3836 229.106 74.3836H210.174C211.146 77.9782 212.359 79.2237 216.26 79.4547C219.302 79.4547 223.029 76.4512 222.683 76.074ZM221.669 68.6364H210.174C210.174 68.6364 210.851 63.9035 216.26 63.9035C221.669 63.9035 221.669 68.6364 221.669 68.6364Z" stroke="black"/>
<path d="M235.53 47H242.629V85.5399H235.53V47Z" stroke="black"/>
<defs>
<linearGradient id="paint0_linear_2001_29" x1="7.94485" y1="40.2591" x2="75.319" y2="103.738" gradientUnits="userSpaceOnUse">
<stop stop-color="#438BED"/>
<stop offset="1" stop-color="#5340B4"/>
</linearGradient>
<linearGradient id="paint1_linear_2001_29" x1="5.60938" y1="18.7915" x2="90.4327" y2="119.236" gradientUnits="userSpaceOnUse">
<stop stop-color="#438AEC"/>
<stop offset="1" stop-color="#493AA0"/>
</linearGradient>
<linearGradient id="paint2_linear_2001_29" x1="109.768" y1="54.0997" x2="149.66" y2="86.5544" gradientUnits="userSpaceOnUse">
<stop offset="0.110577" stop-color="#376BCE"/>
<stop offset="0.735577" stop-color="#5340B4"/>
</linearGradient>
<linearGradient id="paint3_linear_2001_29" x1="107.063" y1="57.4804" x2="144.927" y2="86.5544" gradientUnits="userSpaceOnUse">
<stop stop-color="#376BCE"/>
<stop offset="1" stop-color="#5340B4"/>
</linearGradient>
</defs>
</svg>
