<svg width="131" height="221" viewBox="0 0 131 221" fill="none" xmlns="http://www.w3.org/2000/svg">
<path d="M66.8521 1C93.8477 1.00577 107.527 19.962 107.527 36.0537V57.2051H108.841C114.501 57.2053 119.46 60.1104 122.976 63.8887C126.475 67.6489 128.686 72.4268 128.686 76.3896V145.819C128.686 152.733 125.957 157.53 122.17 160.76C118.419 163.96 113.686 165.581 109.681 166.311L109.592 166.326H24.2017V166.325C20.236 166.349 15.5278 164.159 11.8306 160.724C8.11446 157.27 5.26124 152.414 5.22412 146.939V146.922L6.01025 76.0479C6.01432 72.0829 8.23651 67.3915 11.6958 63.7188C15.174 60.0259 20.0499 57.2052 25.5249 57.2051H26.5083V36.0537C26.5084 30.4568 29.8709 21.7128 36.521 14.3877C43.2089 7.02101 53.3019 0.997207 66.8521 1ZM45.0845 85.9912C41.2237 86.3188 38.7262 89.4787 37.3296 93.1406C36.6404 94.9478 36.2566 96.7939 36.1245 98.292C36.0584 99.0416 36.0576 99.684 36.105 100.177C36.1287 100.423 36.1634 100.617 36.2017 100.761C36.2407 100.908 36.2732 100.965 36.2749 100.968C36.6079 101.467 36.8282 101.761 36.9976 101.931C37.0167 101.95 37.036 101.963 37.0503 101.976C37.0963 101.95 37.1663 101.909 37.2612 101.838C37.528 101.638 37.8748 101.313 38.3726 100.815C40.6341 98.5539 44.9474 97.1943 49.8013 97.8877C50.9421 98.0507 51.5483 98.9899 51.8618 99.8887C52.1843 100.813 52.3222 102.011 52.354 103.316C52.4182 105.948 52.056 109.344 51.5581 112.664C51.0583 115.996 50.4138 119.302 49.895 121.771C49.6354 123.007 49.4064 124.036 49.2427 124.756C49.1608 125.116 49.0956 125.399 49.0503 125.593C49.0277 125.689 49.0095 125.763 48.9976 125.813C48.9916 125.839 48.987 125.858 48.9839 125.871C48.9824 125.877 48.9808 125.882 48.98 125.886C48.9796 125.887 48.9792 125.889 48.979 125.89V125.891V125.892L48.9722 125.919L48.9644 125.946C48.2411 128.347 46.1949 130.405 44.6118 132.022C43.5408 133.117 42.697 133.989 42.2622 134.75C42.0526 135.117 41.8587 135.869 41.8774 136.859C41.8957 137.825 42.1159 138.915 42.6196 139.923C43.1194 140.922 43.8976 141.841 45.0503 142.497C46.2047 143.154 47.7916 143.581 49.9546 143.504C53.9116 143.363 56.3431 139.897 57.8149 135.931C58.5316 134 58.9728 132.067 59.2349 130.61C59.3656 129.884 59.4511 129.281 59.5034 128.861C59.5296 128.652 59.5469 128.488 59.5581 128.379C59.5637 128.324 59.5683 128.283 59.5708 128.256C59.572 128.242 59.5722 128.233 59.5728 128.227C59.573 128.224 59.5736 128.222 59.5737 128.221V128.219C59.5739 128.216 59.5745 128.214 59.5747 128.211C59.5757 128.198 59.5767 128.177 59.5786 128.151C59.5824 128.099 59.5879 128.022 59.5952 127.921C59.6099 127.719 59.6319 127.423 59.6597 127.046C59.7152 126.291 59.7949 125.211 59.8931 123.909C60.0895 121.304 60.3584 117.81 60.6479 114.253C60.9374 110.697 61.2481 107.075 61.5278 104.215C61.6676 102.786 61.8003 101.54 61.9194 100.587C61.9789 100.111 62.0366 99.7007 62.0903 99.373C62.1405 99.0671 62.1975 98.7705 62.2671 98.5615L62.3433 98.3672C62.5436 97.9318 62.8867 97.6151 63.228 97.3906C63.6228 97.1311 64.0947 96.9413 64.5806 96.8008C65.5547 96.5191 66.7489 96.3897 67.9263 96.3896C69.107 96.3896 70.3329 96.5202 71.3745 96.7949C71.8954 96.9323 72.3954 97.1125 72.8296 97.3467C73.2565 97.5769 73.678 97.8899 73.9663 98.3223C74.1784 98.6405 74.259 99.051 74.3032 99.3506C74.3545 99.6985 74.3836 100.119 74.3979 100.587C74.4268 101.526 74.3981 102.75 74.3335 104.156C74.2042 106.974 73.9246 110.616 73.6362 114.38C73.3053 118.699 72.9622 123.183 72.811 126.828C72.7354 128.652 72.7094 130.246 72.7544 131.495C72.7769 132.12 72.8164 132.643 72.8735 133.057C72.9331 133.487 73.0028 133.731 73.0522 133.84C73.183 134.127 73.3137 134.428 73.4448 134.729C74.2418 136.557 75.1196 138.547 76.8726 140.192C78.5983 141.812 81.2652 143.177 85.77 143.506C90.2375 143.832 93.53 140.535 95.3882 136.679C96.3052 134.775 96.8137 132.839 96.9185 131.354C96.9712 130.605 96.9179 130.029 96.8032 129.646C96.7469 129.459 96.6847 129.348 96.6401 129.29C96.6339 129.282 96.6267 129.276 96.6216 129.271C95.1788 129.106 93.9349 129.831 92.0542 130.999C91.2812 131.479 90.4188 132.015 89.4536 132.502L89.1479 132.656L88.812 132.591C86.9967 132.236 85.8272 131.366 85.0493 130.22C84.3136 129.136 83.9601 127.842 83.6558 126.757C83.4786 126.125 83.3177 125.554 83.1128 125.029L83.0679 124.915L83.0522 124.794C82.4846 120.388 82.6567 115.016 83.0034 110.575C83.3503 106.132 83.8802 102.537 84.0562 101.657C84.2519 100.679 84.7239 99.6574 85.2163 98.8516C85.4658 98.4434 85.7347 98.0676 85.9985 97.7607C86.2399 97.4801 86.5532 97.1665 86.9038 96.9912L87.0884 96.916C87.277 96.8541 87.4673 96.8295 87.5835 96.8154C87.7887 96.7905 88.034 96.7731 88.2974 96.7617C88.8268 96.7389 89.496 96.7352 90.2085 96.7412C91.6366 96.7532 93.2963 96.8064 94.4819 96.8447C95.2115 96.8683 95.7378 96.8857 95.9468 96.8857C96.1419 96.8857 96.4901 96.769 96.8032 96.4844C97.1029 96.2119 97.2612 95.8857 97.2612 95.5713C97.2612 95.2041 97.2842 94.5678 97.311 93.832C97.3499 92.767 97.3984 91.4469 97.4067 90.2422C97.4153 89.0021 97.3796 87.9961 97.2808 87.502C97.1647 86.9216 96.8933 86.5705 96.5757 86.3506C96.2395 86.118 95.7887 85.9912 95.2856 85.9912H45.0845ZM66.8521 17.2227C55.7001 17.2227 49.8036 22.7577 46.6431 28.2871C45.0502 31.074 44.1494 33.8709 43.6479 35.9766C43.3977 37.0274 43.2483 37.9012 43.1616 38.5078C43.1184 38.8105 43.0912 39.0463 43.0747 39.2041C43.0664 39.2829 43.0605 39.3426 43.0571 39.3809C43.0562 39.3916 43.0558 39.4008 43.0552 39.4082V57.2051H92.3022V39.4395C92.2961 39.4011 92.2866 39.3451 92.2739 39.2734C92.246 39.1153 92.2022 38.8786 92.1372 38.5752C92.007 37.9677 91.7941 37.0934 91.4683 36.041C90.8154 33.9324 89.7125 31.1282 87.9146 28.332C84.3388 22.7712 78.0152 17.2227 66.8521 17.2227Z" fill="url(#paint0_linear_6_109)" stroke="url(#paint1_linear_6_109)" stroke-width="2"/>
<path d="M7.21574 209.299C10.8526 205.663 10.8526 189.462 10.8526 189.462C8.41619 188.161 3.42553 193.079 2.25642 195.083C1.57323 195.888 0.603335 195.083 0.603322 194.421C0.603308 193.76 -1.04976 182.85 8.86885 182.85C18.7875 182.85 38.6247 181.858 39.2859 182.85C39.9472 183.842 38.9553 188.801 38.2941 189.462C37.6328 190.123 31.6817 188.801 30.6898 189.462C29.698 190.123 26.7224 214.92 31.6817 212.936C36.641 210.952 35.6491 209.63 36.9716 208.308C38.2941 206.985 37.6328 215.581 35.3185 217.234C33.0042 218.887 28.5042 222.356 24.408 217.234C20.3118 212.113 25.3999 190.123 25.0693 189.462C25.0693 189.462 17.7956 188.14 16.4731 189.462C15.1506 190.785 14.1588 211.614 13.4975 213.597C12.8363 215.581 8.53823 221.863 4.9014 219.218C1.26457 216.573 3.57892 212.936 7.21574 209.299Z" fill="url(#paint2_linear_6_109)" stroke="url(#paint3_linear_6_109)"/>
<path d="M56.1478 192.438H48.5436V219.218H56.1478V192.438Z" fill="#D9D9D9"/>
<path d="M52.1804 181.527C52.1804 181.527 47.8823 181.527 47.8823 185.825C47.8823 190.123 52.1804 190.123 52.1804 190.123C52.1804 190.123 56.4785 190.123 56.4785 185.825C56.4785 181.527 52.1804 181.527 52.1804 181.527Z" fill="#D9D9D9"/>
<path d="M70.0339 192.438H62.4296L71.0258 205.332L62.4296 219.218H69.3727L74.6626 211.283L79.6219 219.218H87.5568L78.9607 205.332L87.5568 192.438H79.6219L74.6626 200.042L70.0339 192.438Z" fill="#D9D9D9"/>
<path fill-rule="evenodd" clip-rule="evenodd" d="M110.7 209.96L115.329 213.267C116.834 213.709 111.828 219.513 104.418 220.21C91.2654 220.681 90.863 205.332 90.863 205.332C90.863 191.446 104.418 191.776 104.418 191.776C117.974 192.438 116.982 208.307 116.982 208.307H98.4673C99.4175 211.823 100.604 213.041 104.418 213.267C107.394 213.267 111.038 210.329 110.7 209.96ZM109.708 202.687H98.4673C98.4673 202.687 99.1285 198.058 104.418 198.058C109.708 198.058 109.708 202.687 109.708 202.687Z" fill="#D9D9D9"/>
<path d="M123.264 181.527H130.207V219.218H123.264V181.527Z" fill="#D9D9D9"/>
<path d="M56.1478 192.438H48.5436V219.218H56.1478V192.438Z" stroke="black"/>
<path d="M52.1804 181.527C52.1804 181.527 47.8823 181.527 47.8823 185.825C47.8823 190.123 52.1804 190.123 52.1804 190.123C52.1804 190.123 56.4785 190.123 56.4785 185.825C56.4785 181.527 52.1804 181.527 52.1804 181.527Z" stroke="black"/>
<path d="M70.0339 192.438H62.4296L71.0258 205.332L62.4296 219.218H69.3727L74.6626 211.283L79.6219 219.218H87.5568L78.9607 205.332L87.5568 192.438H79.6219L74.6626 200.042L70.0339 192.438Z" stroke="black"/>
<path fill-rule="evenodd" clip-rule="evenodd" d="M110.7 209.96L115.329 213.267C116.834 213.709 111.828 219.513 104.418 220.21C91.2654 220.681 90.863 205.332 90.863 205.332C90.863 191.446 104.418 191.776 104.418 191.776C117.974 192.438 116.982 208.307 116.982 208.307H98.4673C99.4175 211.823 100.604 213.041 104.418 213.267C107.394 213.267 111.038 210.329 110.7 209.96ZM109.708 202.687H98.4673C98.4673 202.687 99.1285 198.058 104.418 198.058C109.708 198.058 109.708 202.687 109.708 202.687Z" stroke="black"/>
<path d="M123.264 181.527H130.207V219.218H123.264V181.527Z" stroke="black"/>
<defs>
<linearGradient id="paint0_linear_6_109" x1="15.4815" y1="61.5117" x2="120.288" y2="160.367" gradientUnits="userSpaceOnUse">
<stop stop-color="#438BED"/>
<stop offset="1" stop-color="#5340B4"/>
</linearGradient>
<linearGradient id="paint1_linear_6_109" x1="11.8447" y1="28.119" x2="143.762" y2="184.503" gradientUnits="userSpaceOnUse">
<stop stop-color="#438AEC"/>
<stop offset="1" stop-color="#493AA0"/>
</linearGradient>
<linearGradient id="paint2_linear_6_109" x1="0.272718" y1="188.47" x2="39.2859" y2="220.21" gradientUnits="userSpaceOnUse">
<stop offset="0.110577" stop-color="#376BCE"/>
<stop offset="0.735577" stop-color="#5340B4"/>
</linearGradient>
<linearGradient id="paint3_linear_6_109" x1="-2.37225" y1="191.776" x2="34.6572" y2="220.21" gradientUnits="userSpaceOnUse">
<stop stop-color="#376BCE"/>
<stop offset="1" stop-color="#5340B4"/>
</linearGradient>
</defs>
</svg>
